<?xml version="1.0" encoding="UTF-8" standalone="no"?>
<!DOCTYPE svg PUBLIC "-//W3C//DTD SVG 1.1//EN" "http://www.w3.org/Graphics/SVG/1.1/DTD/svg11.dtd">
<svg width="100%" height="100%" viewBox="0 0 500 500" version="1.1" xmlns="http://www.w3.org/2000/svg" xmlns:xlink="http://www.w3.org/1999/xlink" xml:space="preserve" xmlns:serif="http://www.serif.com/" style="fill-rule:evenodd;clip-rule:evenodd;stroke-linejoin:round;stroke-miterlimit:2;">
    <g transform="matrix(1.6422,0,0,1.6422,-160.551,-136.535)">
        <g transform="matrix(1,0,0,1,-2.8068,-25.8747)">
            <g transform="matrix(1.30181,0,0,1.51163,-74.9351,-163.513)">
                <path d="M230.835,304.823L248.285,324.516L230.835,344.208L213.385,324.516L230.835,304.823Z"/>
            </g>
            <g transform="matrix(0.487727,-0.570646,1.33317,1.13945,-360.403,68.1427)">
                <rect x="186.179" y="342.722" width="19.579" height="28.254"/>
            </g>
            <g transform="matrix(1.7063,1.18518,-0.967738,1.39325,222.693,-389.243)">
                <rect x="186.179" y="342.722" width="19.579" height="28.254"/>
            </g>
            <g transform="matrix(0.302338,0.21,-1.35509,1.95092,627.779,-414.567)">
                <rect x="186.179" y="342.722" width="19.579" height="28.254"/>
            </g>
            <g transform="matrix(0.853754,0.254117,-0.483937,1.62588,238.475,-282.011)">
                <rect x="186.179" y="342.722" width="19.579" height="28.254"/>
            </g>
        </g>
        <g transform="matrix(-1,0,0,1,502.807,-25.8747)">
            <g transform="matrix(1.30181,0,0,1.51163,-74.9351,-163.513)">
                <path d="M230.835,304.823L248.285,324.516L230.835,344.208L213.385,324.516L230.835,304.823Z"/>
            </g>
            <g transform="matrix(0.487727,-0.570646,1.33317,1.13945,-360.403,68.1427)">
                <rect x="186.179" y="342.722" width="19.579" height="28.254"/>
            </g>
            <g transform="matrix(1.7063,1.18518,-0.967738,1.39325,222.693,-389.243)">
                <rect x="186.179" y="342.722" width="19.579" height="28.254"/>
            </g>
            <g transform="matrix(0.302338,0.21,-1.35509,1.95092,627.779,-414.567)">
                <rect x="186.179" y="342.722" width="19.579" height="28.254"/>
            </g>
            <g transform="matrix(0.853754,0.254117,-0.483937,1.62588,238.475,-282.011)">
                <rect x="186.179" y="342.722" width="19.579" height="28.254"/>
            </g>
        </g>
        <g transform="matrix(-1.27559,-1.56214e-16,1.22465e-16,-1,549.112,522.755)">
            <path d="M234.49,224.054L254.847,264.767L214.133,264.767L234.49,224.054Z"/>
        </g>
        <g transform="matrix(-1.27559,1.56214e-16,1.22465e-16,1,549.112,-112.038)">
            <path d="M234.49,224.054L254.847,264.767L214.133,264.767L234.49,224.054Z"/>
        </g>
        <g transform="matrix(7.81071e-17,-1.27559,1,6.12323e-17,-67.3965,504.471)">
            <path d="M234.49,224.054L254.847,264.767L214.133,264.767L234.49,224.054Z"/>
        </g>
        <g transform="matrix(-2.34321e-16,-1.27559,-1,1.83697e-16,567.396,504.471)">
            <path d="M234.49,224.054L254.847,264.767L214.133,264.767L234.49,224.054Z"/>
        </g>
        <g transform="matrix(0.901976,-0.901976,0.707107,0.707107,-185.937,195.055)">
            <path d="M234.49,224.054L254.847,264.767L214.133,264.767L234.49,224.054Z"/>
        </g>
        <g transform="matrix(0.901976,-0.901976,-0.707107,-0.707107,262.929,643.921)">
            <path d="M234.49,224.054L254.847,264.767L214.133,264.767L234.49,224.054Z"/>
        </g>
        <g transform="matrix(0.901976,0.901976,-0.707107,0.707107,262.929,-227.954)">
            <path d="M234.49,224.054L254.847,264.767L214.133,264.767L234.49,224.054Z"/>
        </g>
        <g transform="matrix(0.901976,0.901976,0.707107,-0.707107,-185.937,220.912)">
            <path d="M234.49,224.054L254.847,264.767L214.133,264.767L234.49,224.054Z"/>
        </g>
        <g transform="matrix(1.01874,0,0,1.01874,4.20605,-8.58189)">
            <path d="M241.273,152.729C272.884,152.729 298.548,178.394 298.548,210.005C298.548,241.616 272.884,267.281 241.273,267.281C209.661,267.281 183.997,241.616 183.997,210.005C183.997,178.394 209.661,152.729 241.273,152.729ZM241.563,168.648C218.737,168.648 200.206,187.179 200.206,210.005C200.206,232.831 218.737,251.362 241.563,251.362C264.389,251.362 282.92,232.831 282.92,210.005C282.92,187.179 264.389,168.648 241.563,168.648Z"/>
        </g>
    </g>
</svg>
