<?xml version="1.0" encoding="UTF-8" standalone="no"?><!DOCTYPE svg PUBLIC "-//W3C//DTD SVG 1.1//EN" "http://www.w3.org/Graphics/SVG/1.1/DTD/svg11.dtd"><svg width="100%" height="100%" viewBox="0 0 540 540" version="1.1" xmlns="http://www.w3.org/2000/svg" xmlns:xlink="http://www.w3.org/1999/xlink" xml:space="preserve" xmlns:serif="http://www.serif.com/" style="fill-rule:evenodd;clip-rule:evenodd;stroke-linecap:round;stroke-miterlimit:1.5;"><path d="M388.819,130.894l0,252.32c0,3.408 -1.354,6.677 -3.763,9.087c-2.41,2.41 -5.679,3.763 -9.087,3.763l-211.938,0c-3.408,0 -6.677,-1.353 -9.087,-3.763c-2.409,-2.41 -3.763,-5.679 -3.763,-9.087l-0,-252.32l237.638,0Z" style="fill:#ebebeb;fill-opacity:0;stroke:#000;stroke-width:13.35px;"/><g><path d="M201.51,156.269l-0,15.553c-0,4.292 -3.485,7.776 -7.776,7.776l-15.553,0c-4.292,0 -7.777,-3.484 -7.777,-7.776l0,-15.553c0,-4.292 3.485,-7.776 7.777,-7.776l15.553,-0c4.291,-0 7.776,3.484 7.776,7.776Z"/><path d="M257.538,156.269l0,15.553c0,4.292 -3.484,7.776 -7.776,7.776l-15.553,0c-4.292,0 -7.776,-3.484 -7.776,-7.776l-0,-15.553c-0,-4.292 3.484,-7.776 7.776,-7.776l15.553,-0c4.292,-0 7.776,3.484 7.776,7.776Z"/><path d="M313.567,156.269l0,15.553c0,4.292 -3.484,7.776 -7.776,7.776l-15.553,0c-4.292,0 -7.776,-3.484 -7.776,-7.776l-0,-15.553c-0,-4.292 3.484,-7.776 7.776,-7.776l15.553,-0c4.292,-0 7.776,3.484 7.776,7.776Z"/><path d="M369.596,156.269l-0,15.553c-0,4.292 -3.485,7.776 -7.777,7.776l-15.553,0c-4.291,0 -7.776,-3.484 -7.776,-7.776l0,-15.553c0,-4.292 3.485,-7.776 7.776,-7.776l15.553,-0c4.292,-0 7.777,3.484 7.777,7.776Z"/><path d="M201.51,214.616l-0,15.553c-0,4.292 -3.485,7.776 -7.776,7.776l-15.553,0c-4.292,0 -7.777,-3.484 -7.777,-7.776l0,-15.553c0,-4.292 3.485,-7.776 7.777,-7.776l15.553,-0c4.291,-0 7.776,3.484 7.776,7.776Z"/><path d="M257.538,214.616l0,15.553c0,4.292 -3.484,7.776 -7.776,7.776l-15.553,0c-4.292,0 -7.776,-3.484 -7.776,-7.776l-0,-15.553c-0,-4.292 3.484,-7.776 7.776,-7.776l15.553,-0c4.292,-0 7.776,3.484 7.776,7.776Z"/><path d="M313.567,214.616l0,15.553c0,4.292 -3.484,7.776 -7.776,7.776l-15.553,0c-4.292,0 -7.776,-3.484 -7.776,-7.776l-0,-15.553c-0,-4.292 3.484,-7.776 7.776,-7.776l15.553,-0c4.292,-0 7.776,3.484 7.776,7.776Z"/><path d="M369.596,214.616l-0,15.553c-0,4.292 -3.485,7.776 -7.777,7.776l-15.553,0c-4.291,0 -7.776,-3.484 -7.776,-7.776l0,-15.553c0,-4.292 3.485,-7.776 7.776,-7.776l15.553,-0c4.292,-0 7.777,3.484 7.777,7.776Z"/><path d="M201.51,272.963l-0,15.553c-0,4.292 -3.485,7.776 -7.776,7.776l-15.553,0c-4.292,0 -7.777,-3.484 -7.777,-7.776l0,-15.553c0,-4.292 3.485,-7.776 7.777,-7.776l15.553,-0c4.291,-0 7.776,3.484 7.776,7.776Z"/><path d="M257.538,272.963l0,15.553c0,4.292 -3.484,7.776 -7.776,7.776l-15.553,0c-4.292,0 -7.776,-3.484 -7.776,-7.776l-0,-15.553c-0,-4.292 3.484,-7.776 7.776,-7.776l15.553,-0c4.292,-0 7.776,3.484 7.776,7.776Z"/><path d="M313.567,272.963l0,15.553c0,4.292 -3.484,7.776 -7.776,7.776l-15.553,0c-4.292,0 -7.776,-3.484 -7.776,-7.776l-0,-15.553c-0,-4.292 3.484,-7.776 7.776,-7.776l15.553,-0c4.292,-0 7.776,3.484 7.776,7.776Z"/><path d="M369.596,272.963l-0,15.553c-0,4.292 -3.485,7.776 -7.777,7.776l-15.553,0c-4.291,0 -7.776,-3.484 -7.776,-7.776l0,-15.553c0,-4.292 3.485,-7.776 7.776,-7.776l15.553,-0c4.292,-0 7.777,3.484 7.777,7.776Z"/><path d="M201.51,331.31l-0,15.553c-0,4.292 -3.485,7.776 -7.776,7.776l-15.553,0c-4.292,0 -7.777,-3.484 -7.777,-7.776l0,-15.553c0,-4.292 3.485,-7.776 7.777,-7.776l15.553,-0c4.291,-0 7.776,3.484 7.776,7.776Z"/><path d="M257.538,331.31l0,15.553c0,4.292 -3.484,7.776 -7.776,7.776l-15.553,0c-4.292,0 -7.776,-3.484 -7.776,-7.776l-0,-15.553c-0,-4.292 3.484,-7.776 7.776,-7.776l15.553,-0c4.292,-0 7.776,3.484 7.776,7.776Z"/><path d="M313.567,331.31l0,15.553c0,4.292 -3.484,7.776 -7.776,7.776l-15.553,0c-4.292,0 -7.776,-3.484 -7.776,-7.776l-0,-15.553c-0,-4.292 3.484,-7.776 7.776,-7.776l15.553,-0c4.292,-0 7.776,3.484 7.776,7.776Z"/><path d="M369.596,331.31l-0,15.553c-0,4.292 -3.485,7.776 -7.777,7.776l-15.553,0c-4.291,0 -7.776,-3.484 -7.776,-7.776l0,-15.553c0,-4.292 3.485,-7.776 7.776,-7.776l15.553,-0c4.292,-0 7.777,3.484 7.777,7.776Z"/></g><path d="M372.217,73.098l8.268,-0c8.259,-0 14.964,6.728 14.964,15.016l-0,30.032c-0,8.287 -6.705,15.016 -14.964,15.016l-221.003,-0c-8.259,-0 -14.964,-6.729 -14.964,-15.016l0,-30.032c0,-8.288 6.705,-15.016 14.964,-15.016l12.316,-0l0,13.415l-3.817,0c-5.17,0 -9.368,4.213 -9.368,9.402l-0,18.802c-0,5.189 4.198,9.402 9.368,9.402l204.882,-0c5.17,-0 9.368,-4.213 9.368,-9.402l-0,-18.802c-0,-5.189 -4.198,-9.402 -9.368,-9.402l-0.646,0l0,-13.415Zm-173.029,-0l27.838,-0l0,13.415l-27.838,0l0,-13.415Zm57.139,-0l30.155,-0l0,13.415l-30.155,0l0,-13.415Zm61.194,-0l23.231,-0l0,13.415l-23.231,0l-0,-13.415Z"/><g><path d="M199.321,45.32l0,44.336c0,4.171 -1.657,8.172 -4.606,11.121c-2.95,2.95 -6.951,4.607 -11.122,4.607c0,0 -0,0 -0,0c-4.172,0 -8.172,-1.657 -11.122,-4.607c-2.949,-2.949 -4.606,-6.95 -4.606,-11.121c-0,-17.796 -0,-44.336 -0,-44.336l31.456,-0Z" style="fill-opacity:0;stroke:#000;stroke-width:9.82px;stroke-linejoin:round;"/><path d="M256.926,45.32l-0,44.336c-0,4.171 -1.657,8.172 -4.607,11.121c-2.949,2.95 -6.95,4.607 -11.121,4.607c-0,0 -0,0 -0.001,0c-4.171,0 -8.171,-1.657 -11.121,-4.607c-2.949,-2.949 -4.607,-6.95 -4.607,-11.121c0,-17.796 0,-44.336 0,-44.336l31.457,-0Z" style="fill-opacity:0;stroke:#000;stroke-width:9.82px;stroke-linejoin:round;"/><path d="M314.531,45.32l-0,44.336c-0,4.171 -1.658,8.172 -4.607,11.121c-2.95,2.95 -6.95,4.607 -11.121,4.607c-0.001,0 -0.001,0 -0.001,0c-4.171,0 -8.172,-1.657 -11.121,-4.607c-2.95,-2.949 -4.607,-6.95 -4.607,-11.121c0,-17.796 0,-44.336 0,-44.336l31.457,-0Z" style="fill-opacity:0;stroke:#000;stroke-width:9.82px;stroke-linejoin:round;"/><path d="M372.135,45.32l0,44.336c0,4.171 -1.657,8.172 -4.606,11.121c-2.95,2.95 -6.95,4.607 -11.122,4.607c0,0 -0,0 -0,0c-4.171,0 -8.172,-1.657 -11.122,-4.607c-2.949,-2.949 -4.606,-6.95 -4.606,-11.121c-0,-17.796 -0,-44.336 -0,-44.336l31.456,-0Z" style="fill-opacity:0;stroke:#000;stroke-width:9.82px;stroke-linejoin:round;"/></g><rect x="388.126" y="106.497" width="7.322" height="18.719"/><rect x="144.518" y="114.968" width="6.373" height="9.411"/><path d="M201.51,156.269l-0,15.553c-0,4.292 -3.485,7.776 -7.776,7.776l-15.553,0c-4.292,0 -7.777,-3.484 -7.777,-7.776l0,-15.553c0,-4.292 3.485,-7.776 7.777,-7.776l15.553,-0c4.291,-0 7.776,3.484 7.776,7.776Z"/><path d="M257.538,156.269l0,15.553c0,4.292 -3.484,7.776 -7.776,7.776l-15.553,0c-4.292,0 -7.776,-3.484 -7.776,-7.776l-0,-15.553c-0,-4.292 3.484,-7.776 7.776,-7.776l15.553,-0c4.292,-0 7.776,3.484 7.776,7.776Z"/><path d="M313.567,156.269l0,15.553c0,4.292 -3.484,7.776 -7.776,7.776l-15.553,0c-4.292,0 -7.776,-3.484 -7.776,-7.776l-0,-15.553c-0,-4.292 3.484,-7.776 7.776,-7.776l15.553,-0c4.292,-0 7.776,3.484 7.776,7.776Z"/><path d="M369.596,156.269l-0,15.553c-0,4.292 -3.485,7.776 -7.777,7.776l-15.553,0c-4.291,0 -7.776,-3.484 -7.776,-7.776l0,-15.553c0,-4.292 3.485,-7.776 7.776,-7.776l15.553,-0c4.292,-0 7.777,3.484 7.777,7.776Z"/></svg>