<?xml version="1.0" encoding="UTF-8" standalone="no"?><!DOCTYPE svg PUBLIC "-//W3C//DTD SVG 1.1//EN" "http://www.w3.org/Graphics/SVG/1.1/DTD/svg11.dtd"><svg width="100%" height="100%" viewBox="0 0 540 540" version="1.1" xmlns="http://www.w3.org/2000/svg" xmlns:xlink="http://www.w3.org/1999/xlink" xml:space="preserve" xmlns:serif="http://www.serif.com/" style="fill-rule:evenodd;clip-rule:evenodd;stroke-linecap:round;stroke-linejoin:round;stroke-miterlimit:1.5;"><g><rect x="20.367" y="139.343" width="486.628" height="216.145" style="fill:#ebebeb;fill-opacity:0;stroke:#000;stroke-width:15px;"/><rect x="145.963" y="141.939" width="15" height="210.953"/><rect x="46.054" y="164.072" width="80.04" height="15"/><rect x="46.054" y="195.231" width="80.04" height="15"/><rect x="46.054" y="226.391" width="80.04" height="15"/><rect x="46.054" y="257.551" width="80.04" height="15"/><rect x="46.054" y="288.71" width="80.04" height="15"/><path d="M224.443,167.829c-0,-0.964 0.428,-1.878 1.168,-2.495c0.74,-0.618 1.716,-0.875 2.664,-0.702c19.231,3.724 34.349,19.052 37.744,38.395c0.154,0.937 -0.111,1.895 -0.725,2.619c-0.614,0.724 -1.516,1.141 -2.466,1.141c-8.128,0.017 -27.437,0.017 -35.135,0.017c-1.795,-0 -3.25,-1.455 -3.25,-3.25c-0,-7.782 -0,-27.452 -0,-35.725Z"/><path d="M215.92,171.209c1.056,-0.099 2.105,0.252 2.89,0.966c0.785,0.715 1.232,1.727 1.232,2.788c0.029,9.971 0.029,35.268 0.029,35.268l35.269,0c1.069,0 2.089,0.451 2.809,1.242c0.72,0.79 1.074,1.848 0.974,2.913c-2.103,19.717 -18.783,35.085 -39.052,35.085c-21.657,-0 -39.239,-17.583 -39.239,-39.24c-0,-20.269 15.368,-36.948 35.088,-39.022Z"/><rect x="175.523" y="293.358" width="43.977" height="40.787" style="fill:#a60000;fill-opacity:0;stroke:#000;stroke-width:12px;"/><rect x="240.923" y="300.858" width="43.977" height="33.287" style="fill:#a60000;fill-opacity:0;stroke:#000;stroke-width:12px;"/><rect x="306.323" y="262.198" width="43.977" height="71.947" style="fill:#a60000;fill-opacity:0;stroke:#000;stroke-width:12px;"/><rect x="371.723" y="313.752" width="43.977" height="20.394" style="fill:#a60000;fill-opacity:0;stroke:#000;stroke-width:12px;"/><rect x="437.122" y="171.192" width="43.977" height="162.953" style="fill:#a60000;fill-opacity:0;stroke:#000;stroke-width:12px;"/></g></svg>