<?xml version="1.0" encoding="UTF-8" standalone="no"?><!DOCTYPE svg PUBLIC "-//W3C//DTD SVG 1.1//EN" "http://www.w3.org/Graphics/SVG/1.1/DTD/svg11.dtd"><svg width="100%" height="100%" viewBox="0 0 540 540" version="1.1" xmlns="http://www.w3.org/2000/svg" xmlns:xlink="http://www.w3.org/1999/xlink" xml:space="preserve" xmlns:serif="http://www.serif.com/" style="fill-rule:evenodd;clip-rule:evenodd;stroke-linejoin:round;stroke-miterlimit:2;"><g><g><path d="M169.046,161.273c0.261,-0.03 0.526,-0.045 0.795,-0.045l279.953,0c6.631,0 12.99,2.634 17.678,7.323c4.688,4.688 7.322,11.047 7.322,17.677l0,167.544c0,6.63 -2.634,12.989 -7.322,17.677c-4.688,4.689 -11.047,7.323 -17.678,7.323l-279.953,-0c-0.322,-0 -0.639,-0.022 -0.949,-0.064c-3.445,-0.463 -6.101,-3.415 -6.101,-6.986l-0,-26.627l15.456,12.545l0,-1.644c1.094,2.476 3.571,4.205 6.453,4.205l243.635,0c6.63,0 12.989,-2.634 17.678,-7.322c4.688,-4.689 7.322,-11.048 7.322,-17.678l0,-130.402c0,-6.63 -2.634,-12.989 -7.322,-17.678c-4.689,-4.688 -11.048,-7.322 -17.678,-7.322l-243.635,-0c-2.882,-0 -5.359,1.729 -6.453,4.205l0,-1.364l-15.456,12.545l-0,-26.907c-0,-3.625 2.735,-6.61 6.255,-7.005Zm9.201,194.723c-0.384,-0.87 -0.597,-1.833 -0.597,-2.845l-0,-166.302c-0,-1.012 0.213,-1.975 0.597,-2.845l0,171.992Z"/><path d="M168.892,378.708c-2.816,0.272 -5.678,-0.619 -7.867,-2.563l-110.849,-98.423c-2.212,-1.964 -3.478,-4.781 -3.478,-7.74c0,-2.958 1.266,-5.775 3.478,-7.739l110.849,-98.423c2.229,-1.979 5.155,-2.867 8.021,-2.547c1.052,0.117 2.095,0.397 3.094,0.845c3.716,1.671 6.107,5.366 6.107,9.441l0,11.081l-97.904,79.464c-2.421,1.965 -3.828,4.917 -3.828,8.036c0,3.119 1.407,6.071 3.828,8.036l97.904,79.464l0,10.766c0,4.075 -2.391,7.77 -6.107,9.44c-1.047,0.471 -2.144,0.756 -3.248,0.862Zm9.355,-22.712c-0.384,-0.87 -0.597,-1.833 -0.597,-2.845l-0,-166.302c-0,-1.012 0.213,-1.975 0.597,-2.845l0,171.992Z"/></g><g><path d="M178.247,355.996c-0.384,-0.87 -0.597,-1.833 -0.597,-2.845l-0,-166.302c-0,-1.012 0.213,-1.975 0.597,-2.845l0,171.992Z" style="fill:#fff;"/><path d="M189.555,360.201c-3.423,1.294 -7.305,0.687 -10.18,-1.646l-1.128,-0.915l0,-1.644c1.094,2.476 3.571,4.205 6.453,4.205l4.855,0Zm-11.308,-177.561l1.128,-0.915c2.639,-2.142 6.127,-2.829 9.33,-1.926l-4.005,-0c-2.882,-0 -5.359,1.729 -6.453,4.205l0,-1.364Zm0,173.356c-0.384,-0.87 -0.597,-1.833 -0.597,-2.845l-0,-166.302c-0,-1.012 0.213,-1.975 0.597,-2.845l0,171.992Z" style="fill:#fff;"/></g><path d="M333.587,216.435l85.639,85.639c5.926,5.925 5.926,15.546 0,21.472c-5.925,5.925 -15.547,5.925 -21.472,-0l-85.639,-85.639c-5.925,-5.926 -5.925,-15.547 0,-21.472c5.925,-5.926 15.547,-5.926 21.472,-0Z"/><path d="M419.226,237.907l-85.639,85.639c-5.925,5.925 -15.547,5.925 -21.472,-0c-5.925,-5.926 -5.925,-15.547 0,-21.472l85.639,-85.639c5.925,-5.926 15.547,-5.926 21.472,-0c5.926,5.925 5.926,15.546 0,21.472Z"/><rect x="179.437" y="360.203" width="10.118" height="1.523"/><rect x="180.059" y="178.28" width="10.118" height="1.523"/></g></svg>