<?xml version="1.0" encoding="UTF-8" standalone="no"?><!DOCTYPE svg PUBLIC "-//W3C//DTD SVG 1.1//EN" "http://www.w3.org/Graphics/SVG/1.1/DTD/svg11.dtd"><svg width="100%" height="100%" viewBox="0 0 540 540" version="1.1" xmlns="http://www.w3.org/2000/svg" xmlns:xlink="http://www.w3.org/1999/xlink" xml:space="preserve" xmlns:serif="http://www.serif.com/" style="fill-rule:evenodd;clip-rule:evenodd;stroke-linecap:round;stroke-linejoin:round;stroke-miterlimit:1.5;"><path d="M155.014,379.077l39.369,-93.83l54.461,54.461l-93.83,39.369Z" style="fill:#ebebeb;fill-opacity:0;stroke:#000;stroke-width:20px;"/><path d="M194.639,284.956l126.656,-126.655l54.556,54.556l-126.656,126.655l-54.556,-54.556Z" style="fill:#ebebeb;fill-opacity:0;stroke:#000;stroke-width:20px;"/><path d="M321.009,158.636l27.811,-27.811l54.556,54.556l-27.811,27.811l-54.556,-54.556Z" style="fill:#ebebeb;fill-opacity:0;stroke:#000;stroke-width:20px;"/><path d="M429.193,230.571l0,98.399c0,43.931 -35.666,79.597 -79.596,79.597l-159.194,-0c-43.93,-0 -79.596,-35.666 -79.596,-79.597l-0,-160.127c-0,-43.931 35.666,-79.597 79.596,-79.597l50.365,0l-0,23.436l-38.681,-0c-37.482,-0 -67.913,30.431 -67.913,67.913l-0,136.623c-0,37.482 30.431,67.913 67.913,67.913l135.826,0c37.482,0 67.913,-30.431 67.913,-67.913l0,-86.647l23.367,0Z"/></svg>