<?xml version="1.0" encoding="UTF-8" standalone="no"?>
<!DOCTYPE svg PUBLIC "-//W3C//DTD SVG 1.1//EN" "http://www.w3.org/Graphics/SVG/1.1/DTD/svg11.dtd">
<svg width="100%" height="100%" viewBox="0 0 1080 1080" version="1.1" xmlns="http://www.w3.org/2000/svg" xmlns:xlink="http://www.w3.org/1999/xlink" xml:space="preserve" xmlns:serif="http://www.serif.com/" style="fill-rule:evenodd;clip-rule:evenodd;stroke-linejoin:round;stroke-miterlimit:2;">
    <g>
        <rect x="624.918" y="579.623" width="34.82" height="314.865"/>
        <g transform="matrix(0.707107,0.707107,-1.12109,1.12109,1185.84,-865.062)">
            <path d="M652.738,579.623C656.604,579.623 659.738,581.6 659.738,584.039C659.738,622.174 659.738,894.488 659.738,894.488L624.918,894.488L624.918,584.039C624.918,581.6 628.052,579.623 631.918,579.623C637.973,579.623 646.683,579.623 652.738,579.623Z"/>
        </g>
        <g transform="matrix(-6.12323e-17,-1,-1.41086,8.63904e-17,1802,889.268)">
            <path d="M652.738,579.623C656.604,579.623 659.738,581.845 659.738,584.585L659.738,894.488C648.153,894.621 636.538,894.571 624.918,894.488L624.918,584.585C624.918,581.845 628.052,579.623 631.918,579.623L652.738,579.623Z"/>
        </g>
        <g transform="matrix(-1,0,0,0.793466,1080,119.712)">
            <rect x="624.918" y="579.623" width="34.82" height="314.865"/>
        </g>
        <g transform="matrix(-0.787551,0.616249,0.219192,0.280121,812.791,260.398)">
            <path d="M624.918,888.848L659.738,812.247L659.738,579.623L624.918,579.623L624.918,888.848Z"/>
        </g>
        <g transform="matrix(-0.707107,0.707107,1.12109,1.12109,-105.836,-865.062)">
            <path d="M652.738,579.623C656.604,579.623 659.738,581.6 659.738,584.039C659.738,622.174 659.738,894.488 659.738,894.488L624.918,894.488L624.918,584.039C624.918,581.6 628.052,579.623 631.918,579.623C637.973,579.623 646.683,579.623 652.738,579.623Z"/>
        </g>
        <g transform="matrix(6.12323e-17,-1,1.41086,8.63904e-17,-721.999,889.268)">
            <path d="M652.738,579.623C656.604,579.623 659.738,581.845 659.738,584.585L659.738,894.488L624.918,894.488L624.918,584.585C624.918,581.845 628.052,579.623 631.918,579.623L652.738,579.623Z"/>
        </g>
    </g>
</svg>
