<?xml version="1.0" encoding="UTF-8" standalone="no"?><!DOCTYPE svg PUBLIC "-//W3C//DTD SVG 1.1//EN" "http://www.w3.org/Graphics/SVG/1.1/DTD/svg11.dtd"><svg width="100%" height="100%" viewBox="0 0 540 540" version="1.1" xmlns="http://www.w3.org/2000/svg" xmlns:xlink="http://www.w3.org/1999/xlink" xml:space="preserve" xmlns:serif="http://www.serif.com/" style="fill-rule:evenodd;clip-rule:evenodd;stroke-linejoin:round;stroke-miterlimit:2;"><path d="M336.278,418.524l-265.634,0c-6.63,0 -12.989,-2.634 -17.678,-7.322c-4.688,-4.689 -7.322,-11.047 -7.322,-17.678l0,-347.996c0,-6.631 2.634,-12.99 7.322,-17.678c4.689,-4.688 11.048,-7.322 17.678,-7.322l265.634,-0l-0,397.996Zm60.719,-397.996l20.194,-0c6.631,-0 12.99,2.634 17.678,7.322c4.688,4.688 7.322,11.047 7.322,17.678l0,347.996c0,6.631 -2.634,12.989 -7.322,17.678c-4.688,4.688 -11.047,7.322 -17.678,7.322l-20.194,0l-0,-397.996Z"/><path d="M427.46,447.813c8.136,0 14.731,6.595 14.731,14.731l0,0.001c0,8.136 -6.595,14.731 -14.731,14.731l-203.031,0l0,-29.463l203.031,0Z"/><path d="M148.796,508.823l-0,-84.381l46.463,-0l0,84.381l-23.231,-22.01l-23.232,22.01Z"/><path d="M150.214,447.982l0,29.294l-69.758,0c-13.807,0 -25,-11.192 -25,-25l0,-94.645l94.758,-0l0,60.888l-50.942,-0c-8.136,-0 -14.731,6.595 -14.731,14.731l-0,0.001c-0,8.136 6.595,14.731 14.731,14.731l50.942,0Z"/></svg>