<?xml version="1.0" encoding="UTF-8" standalone="no"?><!DOCTYPE svg PUBLIC "-//W3C//DTD SVG 1.1//EN" "http://www.w3.org/Graphics/SVG/1.1/DTD/svg11.dtd"><svg width="100%" height="100%" viewBox="0 0 2250 2250" version="1.1" xmlns="http://www.w3.org/2000/svg" xmlns:xlink="http://www.w3.org/1999/xlink" xml:space="preserve" xmlns:serif="http://www.serif.com/" style="fill-rule:evenodd;clip-rule:evenodd;stroke-linejoin:round;stroke-miterlimit:2;"><path d="M1819.32,480.993c36.828,-0 72.149,14.63 98.19,40.672c26.042,26.042 40.672,61.362 40.672,98.19c0,0.001 0,0.002 0,0.003c0,36.829 -14.63,72.149 -40.672,98.191c-26.041,26.042 -61.362,40.672 -98.19,40.672c-313.83,-0 -1074.81,-0 -1388.64,-0c-36.828,-0 -72.149,-14.63 -98.19,-40.672c-26.042,-26.042 -40.672,-61.362 -40.672,-98.191c-0,-0.001 -0,-0.002 -0,-0.003c-0,-36.828 14.63,-72.148 40.672,-98.19c26.041,-26.042 61.362,-40.672 98.19,-40.672c313.83,-0 1074.81,-0 1388.64,-0Z"/><path d="M1819.32,986.136c36.828,-0 72.149,14.63 98.19,40.672c26.042,26.042 40.672,61.362 40.672,98.19c0,0.001 0,0.003 0,0.004c0,36.828 -14.63,72.148 -40.672,98.19c-26.041,26.042 -61.362,40.672 -98.19,40.672c-313.83,0 -1074.81,0 -1388.64,0c-36.828,0 -72.149,-14.63 -98.19,-40.672c-26.042,-26.042 -40.672,-61.362 -40.672,-98.19c-0,-0.001 -0,-0.003 -0,-0.004c-0,-36.828 14.63,-72.148 40.672,-98.19c26.041,-26.042 61.362,-40.672 98.19,-40.672c313.83,-0 1074.81,-0 1388.64,-0Z"/><path d="M1819.32,1491.28c36.828,0 72.149,14.63 98.19,40.672c26.042,26.042 40.672,61.362 40.672,98.191c0,0.001 0,0.002 0,0.003c0,36.828 -14.63,72.148 -40.672,98.19c-26.041,26.042 -61.362,40.672 -98.19,40.672c-313.83,0 -1074.81,0 -1388.64,0c-36.828,0 -72.149,-14.63 -98.19,-40.672c-26.042,-26.042 -40.672,-61.362 -40.672,-98.19c-0,-0.001 -0,-0.002 -0,-0.003c-0,-36.829 14.63,-72.149 40.672,-98.191c26.041,-26.042 61.362,-40.672 98.19,-40.672c313.83,0 1074.81,0 1388.64,0Z"/></svg>