<?xml version="1.0" encoding="UTF-8" standalone="no"?>
<!DOCTYPE svg PUBLIC "-//W3C//DTD SVG 1.1//EN" "http://www.w3.org/Graphics/SVG/1.1/DTD/svg11.dtd">
<svg width="100%" height="100%" viewBox="0 0 1080 1080" version="1.1" xmlns="http://www.w3.org/2000/svg" xmlns:xlink="http://www.w3.org/1999/xlink" xml:space="preserve" xmlns:serif="http://www.serif.com/" style="fill-rule:evenodd;clip-rule:evenodd;stroke-linejoin:round;stroke-miterlimit:2;">
    <g transform="matrix(1.10824,0,0,1,-83.9512,75.9169)">
        <path d="M340.519,689.318L340.519,228.048L775.593,228.048L775.593,689.318L340.519,689.318ZM563.01,264.602C463.667,264.602 383.012,353.986 383.012,464.083C383.012,574.18 463.667,663.564 563.01,663.564C662.354,663.564 743.008,574.18 743.008,464.083C743.008,353.986 662.354,264.602 563.01,264.602Z"/>
    </g>
    <g transform="matrix(1,0,0,1,194.415,131.945)">
        <g transform="matrix(1,0,0,1,5.40966,-23.9571)">
            <path d="M478.894,210.119L201.456,210.119C201.456,210.119 245.62,113.672 263.466,74.699C267.944,64.92 277.713,58.648 288.469,58.648C315.098,58.648 365.252,58.648 391.881,58.648C402.637,58.648 412.406,64.92 416.884,74.699C434.73,113.672 478.894,210.119 478.894,210.119Z"/>
        </g>
        <g transform="matrix(-1,-1.22465e-16,1.22465e-16,-1,685.759,840.066)">
            <path d="M478.894,210.119L201.456,210.119C201.456,210.119 245.62,113.672 263.466,74.699C267.944,64.92 277.713,58.648 288.469,58.648C315.098,58.648 365.252,58.648 391.881,58.648C402.637,58.648 412.406,64.92 416.884,74.699C434.73,113.672 478.894,210.119 478.894,210.119Z"/>
        </g>
        <g transform="matrix(0.707107,-0.707107,0.707107,0.707107,-200.434,358.541)">
            <path d="M478.894,210.119L201.456,210.119C201.456,210.119 245.62,113.672 263.466,74.699C267.944,64.92 277.713,58.648 288.469,58.648C315.098,58.648 365.252,58.648 391.881,58.648C402.637,58.648 412.406,64.92 416.884,74.699C434.73,113.672 478.894,210.119 478.894,210.119Z"/>
        </g>
        <g transform="matrix(-0.707107,0.707107,-0.707107,-0.707107,891.603,488.417)">
            <path d="M478.894,210.119L201.456,210.119C201.456,210.119 245.62,113.672 263.466,74.699C267.944,64.92 277.713,58.648 288.469,58.648C315.098,58.648 365.252,58.648 391.881,58.648C402.637,58.648 412.406,64.92 416.884,74.699C434.73,113.672 478.894,210.119 478.894,210.119Z"/>
        </g>
        <g transform="matrix(0.707107,0.707107,-0.707107,0.707107,410.523,-122.539)">
            <path d="M478.894,210.119L201.456,210.119C201.456,210.119 245.62,113.672 263.466,74.699C267.944,64.92 277.713,58.648 288.469,58.648C315.098,58.648 365.252,58.648 391.881,58.648C402.637,58.648 412.406,64.92 416.884,74.699C434.73,113.672 478.894,210.119 478.894,210.119Z"/>
        </g>
        <g transform="matrix(-0.707107,-0.707107,0.707107,-0.707107,280.646,969.497)">
            <path d="M478.894,210.119L201.456,210.119C201.456,210.119 245.62,113.672 263.466,74.699C267.944,64.92 277.713,58.648 288.469,58.648C315.098,58.648 365.252,58.648 391.881,58.648C402.637,58.648 412.406,64.92 416.884,74.699C434.73,113.672 478.894,210.119 478.894,210.119Z"/>
        </g>
        <g transform="matrix(6.12323e-17,-1,1,6.12323e-17,-86.427,757.435)">
            <path d="M478.894,210.119L201.456,210.119C201.456,210.119 245.62,113.672 263.466,74.699C267.944,64.92 277.713,58.648 288.469,58.648C315.098,58.648 365.252,58.648 391.881,58.648C402.637,58.648 412.406,64.92 416.884,74.699C434.73,113.672 478.894,210.119 478.894,210.119Z"/>
        </g>
        <g transform="matrix(-1.72255e-16,1,-1,-1.72255e-16,777.596,77.0854)">
            <path d="M478.894,210.119L201.456,210.119C201.456,210.119 245.62,113.672 263.466,74.699C267.944,64.92 277.713,58.648 288.469,58.648C315.098,58.648 365.252,58.648 391.881,58.648C402.637,58.648 412.406,64.92 416.884,74.699C434.73,113.672 478.894,210.119 478.894,210.119Z"/>
        </g>
    </g>
</svg>
