<?xml version="1.0" encoding="UTF-8" standalone="no"?>
<!DOCTYPE svg PUBLIC "-//W3C//DTD SVG 1.1//EN" "http://www.w3.org/Graphics/SVG/1.1/DTD/svg11.dtd">
<svg width="100%" height="100%" viewBox="0 0 1080 1080" version="1.1" xmlns="http://www.w3.org/2000/svg" xmlns:xlink="http://www.w3.org/1999/xlink" xml:space="preserve" xmlns:serif="http://www.serif.com/" style="fill-rule:evenodd;clip-rule:evenodd;stroke-linejoin:round;stroke-miterlimit:2;">
    <g transform="matrix(0.965836,0,0,1,0,0)">
        <rect x="0" y="1002.19" width="1118.2" height="77.809"/>
    </g>
    <g transform="matrix(0.153529,0,0,4.49818,89.1503,-3855.85)">
        <rect x="0" y="1002.19" width="1118.2" height="77.809"/>
    </g>
    <g transform="matrix(0.153529,0,0,6.10468,575.832,-5590.86)">
        <rect x="0" y="1002.19" width="1118.2" height="77.809"/>
    </g>
    <g transform="matrix(0.153529,0,0,8.35377,819.174,-8019.88)">
        <rect x="0" y="1002.19" width="1118.2" height="77.809"/>
    </g>
    <g transform="matrix(0.153529,0,0,6.74728,332.491,-6284.87)">
        <rect x="0" y="1002.19" width="1118.2" height="77.809"/>
    </g>
    <g transform="matrix(0.749908,0.749908,-0.879988,0.879988,493.373,-35.9217)">
        <rect x="104.269" y="136.855" width="70.719" height="462.912"/>
    </g>
    <g transform="matrix(0.749908,-0.749908,0.46021,0.46021,256.928,230.944)">
        <rect x="104.269" y="136.855" width="70.719" height="462.912"/>
    </g>
    <g transform="matrix(0.749908,0.749908,-0.517492,0.517492,790.207,-12.829)">
        <rect x="104.269" y="136.855" width="70.719" height="462.912"/>
    </g>
    <g transform="matrix(1.06053,0,-5.55112e-17,0.344669,665.031,89.0147)">
        <rect x="104.269" y="136.855" width="70.719" height="462.912"/>
    </g>
    <g transform="matrix(6.49387e-17,-1.06053,0.344669,7.6616e-17,643.89,321.765)">
        <rect x="104.269" y="136.855" width="70.719" height="462.912"/>
    </g>
</svg>
